<svg id="Layer_1" data-name="Layer 1" xmlns="http://www.w3.org/2000/svg" viewBox="0 0 300 300"><defs><style>.cls-1{fill:#3d3d3d;}</style></defs><title>m-nav-menu</title><path class="cls-1" d="M8.08,0H291.92q7.25,0,7.25,7.24V52.85c0,4.82-2.42,7.25-7.25,7.25H8.08C3.24,60.1.83,57.67.83,52.85V7.24Q.83,0,8.08,0Z"/><path class="cls-1" d="M8.08,239.58H291.92q7.25,0,7.25,7.24v45.61c0,4.82-2.42,7.25-7.25,7.25H8.08c-4.83,0-7.25-2.43-7.25-7.25V246.82Q.83,239.57,8.08,239.58Z"/><path class="cls-1" d="M8.08,119.79H291.92q7.25,0,7.25,7.24v45.61c0,4.82-2.42,7.25-7.25,7.25H8.08c-4.83,0-7.25-2.43-7.25-7.25V127Q.83,119.78,8.08,119.79Z"/></svg>